<svg width="25" height="25" viewBox="0 0 25 25" fill="none" xmlns="http://www.w3.org/2000/svg">
<path fill-rule="evenodd" clip-rule="evenodd" d="M7.069 5.59426C6.745 3.80526 7.629 3.01126 8.273 2.43026C8.869 1.89426 9.229 1.57126 8.969 0.642264C8.895 0.378264 9.038 0.0992639 9.288 0.0212639C9.539 -0.0587361 9.8 0.0942639 9.875 0.358264C10.309 1.91126 9.519 2.62126 8.885 3.19226C8.265 3.75026 7.777 4.19026 7.997 5.40626C8.046 5.67626 7.878 5.93926 7.622 5.99026L7.533 5.99926C7.31 5.99926 7.112 5.83326 7.069 5.59426ZM11.069 5.59426C10.745 3.80526 11.629 3.01126 12.273 2.43026C12.869 1.89426 13.229 1.57126 12.969 0.642264C12.895 0.378264 13.038 0.0992639 13.288 0.0212639C13.539 -0.0587361 13.8 0.0942639 13.875 0.358264C14.309 1.91126 13.519 2.62126 12.885 3.19226C12.265 3.75026 11.777 4.19026 11.997 5.40626C12.046 5.67626 11.878 5.93926 11.622 5.99026L11.533 5.99926C11.31 5.99926 11.112 5.83326 11.069 5.59426ZM15.069 5.59426C14.745 3.80526 15.629 3.01126 16.273 2.43026C16.869 1.89426 17.229 1.57126 16.969 0.642264C16.895 0.378264 17.038 0.0992639 17.288 0.0212639C17.539 -0.0587361 17.8 0.0942639 17.875 0.358264C18.309 1.91126 17.519 2.62126 16.885 3.19226C16.265 3.75026 15.777 4.19026 15.997 5.40626C16.046 5.67626 15.878 5.93926 15.622 5.99026L15.533 5.99926C15.31 5.99926 15.112 5.83326 15.069 5.59426ZM20 8.49926C20 12.6353 16.635 15.9993 12.5 15.9993C8.364 15.9993 5 12.6353 5 8.49926V7.99926H20V8.49926ZM16.191 20.9993H8.808L10.887 16.8423C11.41 16.9433 11.948 16.9993 12.5 16.9993C13.051 16.9993 13.59 16.9433 14.112 16.8423L16.191 20.9993ZM17.091 21.9993H17.099V21.9743C17.313 21.4073 17.858 20.9993 18.5 20.9993C19.327 20.9993 20 21.6733 20 22.4993C20 23.3263 19.327 23.9993 18.5 23.9993C17.673 23.9993 17 23.3263 17 22.4993C17 22.3233 17.036 22.1563 17.091 21.9993ZM21.5 6.99926H3.5C3.223 6.99926 3 7.22326 3 7.49926C3 7.77626 3.223 7.99926 3.5 7.99926H4V8.49926C4 12.2853 6.476 15.4903 9.896 16.5903L6.052 24.2763C5.929 24.5233 6.029 24.8233 6.276 24.9473C6.348 24.9833 6.424 24.9993 6.5 24.9993C6.682 24.9993 6.859 24.8993 6.947 24.7233L8.308 21.9993H16.05C16.017 22.1613 16 22.3283 16 22.4993C16 23.8803 17.119 24.9993 18.5 24.9993C19.881 24.9993 21 23.8803 21 22.4993C21 21.1193 19.881 19.9993 18.5 19.9993C17.956 19.9993 17.456 20.1783 17.046 20.4733L15.103 16.5903C18.523 15.4903 21 12.2853 21 8.49926V7.99926H21.5C21.776 7.99926 22 7.77626 22 7.49926C22 7.22326 21.776 6.99926 21.5 6.99926Z" fill="black"/>
</svg>
