<svg width="25" height="25" viewBox="0 0 25 25" fill="none" xmlns="http://www.w3.org/2000/svg">
<path fill-rule="evenodd" clip-rule="evenodd" d="M25 19.5V11.5C25 11.2239 24.7761 11 24.5 11C24.2239 11 24 11.2239 24 11.5V16H1V2.5C1 2.22386 1.22386 2 1.5 2H14.5C14.7761 2 15 1.77614 15 1.5C15 1.22386 14.7761 1 14.5 1H1.5C0.671938 1.00088 0.000881855 1.67194 0 2.5V19.5C0.000881855 20.3281 0.671938 20.9991 1.5 21H9.8L9.2 24H7.5C7.22386 24 7 24.2239 7 24.5C7 24.7761 7.22386 25 7.5 25H17.5C17.7761 25 18 24.7761 18 24.5C18 24.2239 17.7761 24 17.5 24H15.8L15.2 21H23.5C24.3281 20.9991 24.9991 20.3281 25 19.5ZM22.0342 3.5939C20.8257 2.45769 19.1922 1.88714 17.5391 2.0239C17.2672 2.03603 17.0325 1.83551 17.0019 1.5651C16.9914 1.43287 17.0338 1.30188 17.1199 1.20096C17.206 1.10004 17.3287 1.03746 17.4609 1.027C19.3917 0.869871 21.2991 1.53557 22.7129 2.86C24.1565 4.18098 24.9852 6.04326 25 8C25 8.16964 24.988 8.33649 24.9761 8.50291L24.9761 8.50298L24.9736 8.5381C24.9537 8.79849 24.7368 8.99971 24.4756 9C24.4619 9 24.4492 9 24.4365 8.9985C24.1612 8.97737 23.9549 8.73727 23.9756 8.4619C23.9883 8.3091 24 8.1563 24 8C23.9856 6.32192 23.2733 4.72557 22.0342 3.5939ZM18 7C17.4477 7 17 7.44772 17 8C17 8.55228 17.4477 9 18 9C18.5523 9 19 8.55228 19 8C19 7.44772 18.5523 7 18 7ZM17.5261 5.02C18.4717 4.911 19.4195 5.205 20.1374 5.83C20.7105 6.40652 21.0223 7.19277 21 8.0054C20.9951 8.15014 20.9801 8.29436 20.9551 8.437C20.9359 8.56724 20.9699 8.69973 21.0494 8.80462C21.129 8.90951 21.2474 8.97798 21.378 8.9946C21.4008 8.99804 21.4239 8.99985 21.447 9C21.701 8.99235 21.9127 8.80329 21.949 8.5518C21.9794 8.37117 21.9964 8.18854 22 8.0054C22.0245 6.91525 21.5997 5.86298 20.8252 5.0954C19.9111 4.27687 18.6941 3.88218 17.4736 4.0085C17.1962 4.02518 16.9847 4.2633 17.0009 4.5407C17.0178 4.81609 17.2503 5.0283 17.5261 5.02ZM14.78 24L14.18 21H10.82L10.22 24H14.78ZM1 17H24V19.5C24 19.7761 23.7761 20 23.5 20H1.5C1.22386 20 1 19.7761 1 19.5V17Z" fill="black"/>
</svg>
